# xmcd
#
# Track frame offsets:
# 150
# 11740
# 24042
# 38097
# 49050
# 60367
# 73450
# 90487
# 102875
# 115900
#
# Disc length: 1776 seconds
#
#
# Revision: 7
# Processed by: cddbd v1.5.1PL2 Copyright (c) Steve Scherf et al.
# Submitted via: FreeRIP 2.944 
#
DISCID=7706ee0a
DTITLE=Various Artist - Bluegrass Super Hits
DYEAR=1996
DGENRE=Bluegrass
TTITLE0=The Stanley Brothers and The Clinch Mountain Boys - The Fields Have Turned Brown
TTITLE1=Lester Flatt, Earl Scruggs and The Foggy Mountain Boys - Don't Get Above Your Raising
TTITLE2=Bill Monroe and His Bluegrass Boys - Blue Moon Of Kentucky
TTITLE3=Ricky Skaggs - Uncle Pen
TTITLE4=Lester Flatt and Earl Scruggs - Cabin On The Hill
TTITLE5=Roy Acuff - Great Speckled Bird
TTITLE6=Ricky Skaggs - Can't You Hear Me Calling
TTITLE7=Little Jimmy Dickens - A-Sleepin' At The Foot Of The Bed
TTITLE8=Jim and Jesse - When I Stop Dreaming
TTITLE9=Marty Stuart - Get Down On Your Knees And Pray
EXTD=
EXTT0=
EXTT1=
EXTT2=
EXTT3=
EXTT4=
EXTT5=
EXTT6=
EXTT7=
EXTT8=
EXTT9=
PLAYORDER=
